<svg xmlns="http://www.w3.org/2000/svg" viewBox="0 0 205.84 88.31">
    <defs>
        <style>
            .cls-1,
            .cls-3 {
                fill: #68ba82;
            }

            .cls-2,
            .cls-7 {
                fill: #fff;
            }

            .cls-2,
            .cls-5,
            .cls-7,
            .cls-8 {
                stroke: #1d1d1b;
            }

            .cls-2,
            .cls-3,
            .cls-4,
            .cls-5,
            .cls-6,
            .cls-7,
            .cls-8 {
                stroke-miterlimit: 10;
            }

            .cls-3,
            .cls-6 {
                stroke: #064a23;
            }

            .cls-3,
            .cls-6,
            .cls-7 {
                stroke-width: 2px;
            }

            .cls-4,
            .cls-5 {
                fill: none;
            }

            .cls-4 {
                stroke: #063;
            }

            .cls-6 {
                fill: #008d36;
            }

            .cls-8 {
                font-size: 32.29px;
                fill: #1d1d1b;
                font-family: Marydale-Regular, Marydale;
            }

            .cls-9 {
                letter-spacing: -0.02em;
            }

            .cls-10 {
                letter-spacing: -0.05em;
            }

            .cls-11 {
                letter-spacing: -0.01em;
            }
        </style>
    </defs>
    <g id="Ebene_4" data-name="Ebene 4">
        <path class="cls-1"
            d="M142.17,122.39a4.38,4.38,0,0,1-1.85,1.42l3.07,3.08c-.12.33.19-.13,0,0a1.51,1.51,0,0,1,.72-.28c-.33.05.46,0,.11,0,.12,0,.73.3.44.08a1.69,1.69,0,0,1-.07,2.44l3.93.51a3.46,3.46,0,0,1-.5-3.76L145.23,127a6.59,6.59,0,0,1,3.82,5.06l3.07-3.08c-8-2.77-15.42-6.85-22.93-10.67-7.75-3.94-15.52-7.87-23.21-11.94-2-1.08-5,1.25-3.42,3.42a16,16,0,0,0,4.14,4.11,2.53,2.53,0,0,0,3.42-.9c1.4-2.13-.32-4.37-2.42-5a11.28,11.28,0,0,0-3.07-.23,28.89,28.89,0,0,1-3.34-.26A43.17,43.17,0,0,1,89,103.56c-8-3.81-15.21-9.17-23-13.48a60.81,60.81,0,0,0-14-5.86A2.51,2.51,0,0,0,50,88.79a28.55,28.55,0,0,0,9.54,3.58c3.49.76,7,1.48,10.44,2.36,7.23,1.82,14.34,4,21.45,6.24,6.85,2.13,13.75,4.21,20.26,7.25a149.49,149.49,0,0,1,18.73,10.89c7.1,4.67,14.13,9.44,21.19,14.17,2.34,1.57,5.18-2.06,3-3.93a93.17,93.17,0,0,0-28.55-16.89c-5.47-2.06-11.07-3.78-16.63-5.57l-17.34-5.61-20-6.44c-3.07-1-4.38,3.83-1.33,4.82q19.06,6.16,38.38,11.45c2.66.73,4.52-3.28,1.92-4.57Q87.73,95,63.54,85a2.46,2.46,0,0,0-2.94,1.44,2.53,2.53,0,0,0,1,3.13c5.56,3.56,11.86,5.75,18.18,7.55,6.13,1.75,12.3,3.35,18.37,5.31a156.36,156.36,0,0,1,33.63,14.92,101.63,101.63,0,0,1,16.51,12.45c2.35,2.19,5.9-1.34,3.54-3.54-18.8-17.55-43.15-26.41-67.53-33.07-7-1.91-14-4-20.18-7.94l-1.92,4.57q23.57,9.7,46.42,21l1.93-4.57Q91.25,101,72.19,94.84l-1.33,4.82,34.2,11c10.67,3.45,21.59,6.49,31.45,12a85.11,85.11,0,0,1,14.61,10.22l3-3.93q-9.63-6.45-19.26-12.9a179,179,0,0,0-18.17-10.94,132.67,132.67,0,0,0-20.29-7.83C89.19,95,82,92.73,74.62,90.76q-6-1.61-12.08-2.86c-3.48-.72-7-1.46-10-3.43L50.62,89c16,4.16,27.84,17,43.56,21.91a41.39,41.39,0,0,0,6.78,1.47c1.08.14,2.15.25,3.24.29.58,0,1.16,0,1.74,0s.14,0,.13,0c.31.07.4.1.27.08-.34,0-.54-.32-.62-.8v-1.32l.08-.2,3.42-.9a9.18,9.18,0,0,1-2.34-2.31l-3.42,3.42c7.83,4.15,15.74,8.14,23.64,12.16,7.75,3.94,15.46,8.09,23.69,11,2,.68,3.4-1.35,3.08-3.07a11.58,11.58,0,0,0-7.31-8.55,2.51,2.51,0,0,0-2.83,1.15,8.37,8.37,0,0,0,.5,8.8,2.54,2.54,0,0,0,3.92.51c2.69-2.81,2.76-7.79-.66-10.08a6.06,6.06,0,0,0-8.92,3,2.51,2.51,0,0,0,3.08,3.07,9.22,9.22,0,0,0,4-2.71,2.55,2.55,0,0,0,0-3.53,2.5,2.5,0,0,0-3.53,0Z"
            transform="translate(-45.37 -67.36)" />
    </g>
    <g id="Ebene_2" data-name="Ebene 2">
        <path class="cls-2" d="M172,131.78" transform="translate(-45.37 -67.36)" />
        <path class="cls-3"
            d="M157.83,133.37s-2.22,2.66-8.54,5.54l-11.55,4.56-.42-2.09s-13.06,4.74-19.91,6.23l.29-2.83-16.43-.05,1.38-2.17S95,142.4,89,139.51l2.53-1.94s-8.66-3.27-14.6-8.28l3.41-1.17a70.75,70.75,0,0,1-12.84-11l4.42-.9L59.36,104.88l5.08-1.38L46.57,85.36"
            transform="translate(-45.37 -67.36)" />
        <path class="cls-3"
            d="M157.83,133.37s2.17-.63,2.95-8.11v0c0-.26.44-9.9.44-9.9l-2.66.61s.12-9.38-1.07-14.73l-2.4,1.26-6.16-11.94-2.37,2.35s-6-6.78-11-10a12.09,12.09,0,0,1,0,2.58c-2.65-1.44-4.44-3.22-15.9-7.3L119.29,81S111.45,76.09,95,74.18l-.25,3.47c.3.69-4.88.3-11.94.2L72,77.89h0l2.37,3.21h0L66,82.32l-7.62,1c-6.13.85-12,1.75-12,2,0,0,.1.05.14.06,13.1,2.08,34.07,5.34,46.08,9.74.15.06,11.22,4.7,11.37,4.75a114.57,114.57,0,0,1,22.45,10.53c5.06,3.09,9,4.91,13.44,8.16C151,126.75,153.55,129.36,157.83,133.37Z"
            transform="translate(-45.37 -67.36)" />
        <path class="cls-4" d="M157.7,133.22" transform="translate(-45.37 -67.36)" />
        <path class="cls-5" d="M172.57,151.41" transform="translate(-45.37 -67.36)" />
        <path class="cls-5" d="M80.58,77.68" transform="translate(-45.37 -67.36)" />
        <path class="cls-6" d="M157.7,133.22s10.28,10.2,15.61,20.39" transform="translate(-45.37 -67.36)" />
    </g>
    <g id="Ebene_1" data-name="Ebene 1">
        <polygon class="cls-7"
            points="36.24 52.57 36.24 1 51 1 57.35 14.1 63.9 1 78.03 1 78.03 52.57 63.48 52.57 63.48 25.33 58.28 34.69 51 24.7 51 52.57 36.24 52.57" />
        <rect class="cls-7" x="82.82" y="1" width="12.48" height="51.57" />
        <polygon class="cls-7"
            points="99.97 1 99.97 52.57 112.15 52.57 112.15 33.23 119.86 52.57 132.86 52.57 132.86 1 118.85 1 118.85 14.1 112.56 1 99.97 1" />
        <polygon class="cls-7"
            points="137.53 1 137.53 14.1 146.53 14.1 146.53 52.57 158.23 52.57 158.23 14.1 167.95 14.1 167.95 1 137.53 1" />
        <text class="cls-8" transform="translate(132.88 71.44) rotate(-26.14) scale(0.75 1)">
            <tspan class="cls-9">i</tspan>
            <tspan x="6.97" y="0">m </tspan>
            <tspan class="cls-10" x="39.42" y="0">K</tspan>
            <tspan class="cls-11" x="58.69" y="0">o</tspan>
            <tspan x="70.03" y="0">pf</tspan>
        </text></g>
</svg>